$ Generated by COMSOL 6.2.0.290
$ Aug 13 2026, 19:28
BEGIN BULK
$ Grid data section
GRID           1        0.100000-0.01000-0.01500
GRID           2        0.133333-0.01000-0.01500
GRID           3        0.1000005.42E-20-0.01500
GRID           4        0.100000-0.010007.04E-19
GRID           5        0.166667-0.01000-0.01500
GRID           6        0.133333 0.00000-0.01500
GRID           7        0.133333-0.01000 0.00000
GRID           8        0.1000000.010000-0.01500
GRID           9        0.100000-1.2E-182.44E-18
GRID          10        0.100000-0.010000.015000
GRID          11        0.200000-0.01000-0.01500
GRID          12        0.166667 0.00000-0.01500
GRID          13        0.166667-0.01000 0.00000
GRID          14        0.1333330.010000-0.01500
GRID          15        0.133333 0.000001.22E-18
GRID          16        0.133333-0.010000.015000
GRID          17        0.1000000.0100002.65E-18
GRID          18        0.1000005.42E-200.015000
GRID          19        0.233333-0.01000-0.01500
GRID          20        0.200000 0.00000-0.01500
GRID          21        0.200000-0.010002.44E-18
GRID          22        0.1666670.010000-0.01500
GRID          23        0.166667 0.000001.22E-18
GRID          24        0.166667-0.010000.015000
GRID          25        0.1333330.0100002.44E-18
GRID          26        0.133333 0.000000.015000
GRID          27        0.1000000.0100000.015000
GRID          28        0.266667-0.01000-0.01500
GRID          29        0.233333 0.00000-0.01500
GRID          30        0.233333-0.01000 0.00000
GRID          31        0.2000000.010000-0.01500
GRID          32        0.200000 0.000003.66E-18
GRID          33        0.200000-0.010000.015000
GRID          34        0.1666670.0100002.44E-18
GRID          35        0.166667-1.2E-180.015000
GRID          36        0.1333330.0100000.015000
GRID          37        0.300000-0.01000-0.01500
GRID          38        0.266667 0.00000-0.01500
GRID          39        0.266667-0.01000 0.00000
GRID          40        0.2333330.010000-0.01500
GRID          41        0.233333 0.000001.22E-18
GRID          42        0.233333-0.010000.015000
GRID          43        0.2000000.0100004.88E-18
GRID          44        0.200000 0.000000.015000
GRID          45        0.1666670.0100000.015000
GRID          46        0.333333-0.01000-0.01500
GRID          47        0.3000002.44E-18-0.01500
GRID          48        0.300000-0.01000 0.00000
GRID          49        0.2666670.010000-0.01500
GRID          50        0.266667 0.000001.22E-18
GRID          51        0.266667-0.010000.015000
GRID          52        0.2333330.0100002.44E-18
GRID          53        0.2333332.44E-180.015000
GRID          54        0.2000000.0100000.015000
GRID          55        0.366667-0.01000-0.01500
GRID          56        0.3333332.44E-18-0.01500
GRID          57        0.333333-0.01000 0.00000
GRID          58        0.3000000.010000-0.01500
GRID          59        0.300000 0.000001.22E-18
GRID          60        0.300000-0.010000.015000
GRID          61        0.2666670.0100002.44E-18
GRID          62        0.2666671.22E-180.015000
GRID          63        0.2333330.0100000.015000
GRID          64        0.400000-0.01000-0.01500
GRID          65        0.3666673.66E-18-0.01500
GRID          66        0.366667-0.01000 0.00000
GRID          67        0.3333330.010000-0.01500
GRID          68        0.333333 0.000001.22E-18
GRID          69        0.333333-0.010000.015000
GRID          70        0.3000000.0100002.44E-18
GRID          71        0.3000002.44E-180.015000
GRID          72        0.2666670.0100000.015000
GRID          73        0.433333-0.01000-0.01500
GRID          74        0.4000001.22E-18-0.01500
GRID          75        0.400000-0.01000 0.00000
GRID          76        0.3666670.010000-0.01500
GRID          77        0.366667 0.000001.22E-18
GRID          78        0.366667-0.010000.015000
GRID          79        0.3333330.0100002.44E-18
GRID          80        0.3333332.44E-180.015000
GRID          81        0.3000000.0100000.015000
GRID          82        0.466667-0.01000-0.01500
GRID          83        0.4333333.66E-18-0.01500
GRID          84        0.433333-0.01000 0.00000
GRID          85        0.4000000.010000-0.01500
GRID          86        0.400000 0.000001.22E-18
GRID          87        0.400000-0.010000.015000
GRID          88        0.3666670.0100002.44E-18
GRID          89        0.3666673.66E-180.015000
GRID          90        0.3333330.0100000.015000
GRID          91        0.500000-0.01000-0.01500
GRID          92        0.4666673.66E-18-0.01500
GRID          93        0.466667-0.01000 0.00000
GRID          94        0.4333330.010000-0.01500
GRID          95        0.433333 0.000001.22E-18
GRID          96        0.433333-0.010000.015000
GRID          97        0.4000000.0100002.44E-18
GRID          98        0.4000002.44E-180.015000
GRID          99        0.3666670.0100000.015000
GRID         100        0.533333-0.01000-0.01500
GRID         101        0.5000002.44E-18-0.01500
GRID         102        0.500000-0.01000 0.00000
GRID         103        0.4666670.010000-0.01500
GRID         104        0.466667 0.000001.22E-18
GRID         105        0.466667-0.010000.015000
GRID         106        0.4333330.0100002.44E-18
GRID         107        0.433333-2.4E-180.015000
GRID         108        0.4000000.0100000.015000
GRID         109        0.566667-0.01000-0.01500
GRID         110        0.533333-1.2E-18-0.01500
GRID         111        0.533333-0.010002.44E-18
GRID         112        0.5000000.010000-0.01500
GRID         113        0.500000 0.000001.22E-18
GRID         114        0.500000-0.010000.015000
GRID         115        0.4666670.0100002.44E-18
GRID         116        0.4666672.44E-180.015000
GRID         117        0.4333330.0100000.015000
GRID         118        0.600000-0.01000-0.01500
GRID         119        0.566667 0.00000-0.01500
GRID         120        0.566667-0.01000 0.00000
GRID         121        0.5333330.010000-0.01500
GRID         122        0.533333 0.000003.66E-18
GRID         123        0.533333-0.010000.015000
GRID         124        0.5000000.0100002.44E-18
GRID         125        0.500000-3.6E-180.015000
GRID         126        0.4666670.0100000.015000
GRID         127        0.633333-0.01000-0.01500
GRID         128        0.6000001.22E-18-0.01500
GRID         129        0.600000-0.01000 0.00000
GRID         130        0.5666670.010000-0.01500
GRID         131        0.566667 0.000001.22E-18
GRID         132        0.566667-0.010000.015000
GRID         133        0.5333330.0100004.88E-18
GRID         134        0.533333-1.2E-180.015000
GRID         135        0.5000000.0100000.015000
GRID         136        0.666667-0.01000-0.01500
GRID         137        0.633333-1.2E-18-0.01500
GRID         138        0.633333-0.01000 0.00000
GRID         139        0.6000000.010000-0.01500
GRID         140        0.600000 0.000001.22E-18
GRID         141        0.600000-0.010000.015000
GRID         142        0.5666670.0100002.44E-18
GRID         143        0.566667-2.4E-180.015000
GRID         144        0.5333330.0100000.015000
GRID         145        0.700000-0.01000-0.01500
GRID         146        0.6666671.22E-18-0.01500
GRID         147        0.666667-0.01000 0.00000
GRID         148        0.6333330.010000-0.01500
GRID         149        0.633333 0.000002.44E-18
GRID         150        0.633333-0.010000.015000
GRID         151        0.6000000.0100002.44E-18
GRID         152        0.6000001.22E-180.015000
GRID         153        0.5666670.0100000.015000
GRID         154        0.733333-0.01000-0.01500
GRID         155        0.7000001.22E-18-0.01500
GRID         156        0.700000-0.010004.88E-18
GRID         157        0.6666670.010000-0.01500
GRID         158        0.666667 0.000001.22E-18
GRID         159        0.666667-0.010000.015000
GRID         160        0.6333330.0100004.88E-18
GRID         161        0.633333-2.4E-180.015000
GRID         162        0.6000000.0100000.015000
GRID         163        0.766667-0.01000-0.01500
GRID         164        0.7333332.44E-18-0.01500
GRID         165        0.733333-0.01000 0.00000
GRID         166        0.7000000.010000-0.01500
GRID         167        0.700000 0.000006.10E-18
GRID         168        0.700000-0.010000.015000
GRID         169        0.6666670.0100002.44E-18
GRID         170        0.666667 0.000000.015000
GRID         171        0.6333330.0100000.015000
GRID         172        0.800000-0.01000-0.01500
GRID         173        0.7666673.66E-18-0.01500
GRID         174        0.766667-0.01000 0.00000
GRID         175        0.7333330.010000-0.01500
GRID         176        0.733333 0.000001.22E-18
GRID         177        0.733333-0.010000.015000
GRID         178        0.7000000.0100007.32E-18
GRID         179        0.700000 0.000000.015000
GRID         180        0.6666670.0100000.015000
GRID         181        0.833333-0.01000-0.01500
GRID         182        0.8000003.66E-18-0.01500
GRID         183        0.800000-0.01000 0.00000
GRID         184        0.7666670.010000-0.01500
GRID         185        0.766667 0.000001.22E-18
GRID         186        0.766667-0.010000.015000
GRID         187        0.7333330.0100002.44E-18
GRID         188        0.733333 0.000000.015000
GRID         189        0.7000000.0100000.015000
GRID         190        0.866667-0.01000-0.01500
GRID         191        0.8333331.22E-18-0.01500
GRID         192        0.833333-0.01000 0.00000
GRID         193        0.8000000.010000-0.01500
GRID         194        0.800000 0.000001.22E-18
GRID         195        0.800000-0.010000.015000
GRID         196        0.7666670.0100002.44E-18
GRID         197        0.7666671.22E-180.015000
GRID         198        0.7333330.0100000.015000
GRID         199        0.900000-0.01000-0.01500
GRID         200        0.8666671.22E-18-0.01500
GRID         201        0.866667-0.01000 0.00000
GRID         202        0.8333330.010000-0.01500
GRID         203        0.833333 0.000001.22E-18
GRID         204        0.833333-0.010000.015000
GRID         205        0.8000000.0100002.44E-18
GRID         206        0.8000001.22E-180.015000
GRID         207        0.7666670.0100000.015000
GRID         208        0.933333-0.01000-0.01500
GRID         209        0.9000001.22E-18-0.01500
GRID         210        0.900000-0.01000-2.4E-18
GRID         211        0.8666670.010000-0.01500
GRID         212        0.866667 0.000001.22E-18
GRID         213        0.866667-0.010000.015000
GRID         214        0.8333330.0100002.44E-18
GRID         215        0.833333 0.000000.015000
GRID         216        0.8000000.0100000.015000
GRID         217        0.966667-0.01000-0.01500
GRID         218        0.933333-1.2E-18-0.01500
GRID         219        0.933333-0.01000 0.00000
GRID         220        0.9000000.010000-0.01500
GRID         221        0.900000 0.00000-1.2E-18
GRID         222        0.900000-0.010000.015000
GRID         223        0.8666670.0100002.44E-18
GRID         224        0.866667 0.000000.015000
GRID         225        0.8333330.0100000.015000
GRID         226         1.00000-0.01000-0.01500
GRID         227        0.966667-1.2E-18-0.01500
GRID         228        0.966667-0.01000-2.4E-18
GRID         229        0.9333330.010000-0.01500
GRID         230        0.933333 0.000001.22E-18
GRID         231        0.933333-0.010000.015000
GRID         232        0.9000000.010000 0.00000
GRID         233        0.900000 0.000000.015000
GRID         234        0.8666670.0100000.015000
GRID         235         1.03333-0.01000-0.01500
GRID         236         1.000001.22E-18-0.01500
GRID         237         1.00000-0.010004.88E-18
GRID         238        0.9666670.010000-0.01500
GRID         239        0.966667 0.00000-1.2E-18
GRID         240        0.966667-0.010000.015000
GRID         241        0.9333330.0100002.44E-18
GRID         242        0.933333 0.000000.015000
GRID         243        0.9000000.0100000.015000
GRID         244         1.06667-0.01000-0.01500
GRID         245         1.033331.22E-18-0.01500
GRID         246         1.03333-0.01000 0.00000
GRID         247         1.000000.010000-0.01500
GRID         248         1.00000 0.000006.10E-18
GRID         249         1.00000-0.010000.015000
GRID         250        0.9666670.010000 0.00000
GRID         251        0.966667 0.000000.015000
GRID         252        0.9333330.0100000.015000
GRID         253         1.10000-0.01000-0.01500
GRID         254         1.066671.22E-18-0.01500
GRID         255         1.06667-0.01000 0.00000
GRID         256         1.033330.010000-0.01500
GRID         257         1.03333 0.000001.22E-18
GRID         258         1.03333-0.010000.015000
GRID         259         1.000000.0100007.32E-18
GRID         260         1.00000 0.000000.015000
GRID         261        0.9666670.0100000.015000
GRID         262         1.10000-5.4E-20-0.01500
GRID         263         1.10000-0.010007.04E-19
GRID         264         1.066670.010000-0.01500
GRID         265         1.06667 0.000001.22E-18
GRID         266         1.06667-0.010000.015000
GRID         267         1.033330.0100002.44E-18
GRID         268         1.03333-2.4E-180.015000
GRID         269         1.000000.0100000.015000
GRID         270         1.100000.010000-0.01500
GRID         271         1.10000 0.00000 0.00000
GRID         272         1.10000-0.010000.015000
GRID         273         1.066670.0100002.44E-18
GRID         274         1.06667 0.000000.015000
GRID         275         1.033330.0100000.015000
GRID         276         1.100000.0100002.65E-18
GRID         277         1.10000-5.4E-200.015000
GRID         278         1.066670.0100000.015000
GRID         279         1.100000.0100000.015000
GRID         280        0.100000-0.01000-0.00750
GRID         281        0.100000-0.010000.007500
GRID         282        0.100000-0.00500-0.01500
GRID         283        0.1000000.005000-0.01500
GRID         284        0.116667-0.01000-0.01500
GRID         285        0.150000-0.01000-0.01500
GRID         286        0.183333-0.01000-0.01500
GRID         287        0.216667-0.01000-0.01500
GRID         288        0.250000-0.01000-0.01500
GRID         289        0.283333-0.01000-0.01500
GRID         290        0.316667-0.01000-0.01500
GRID         291        0.350000-0.01000-0.01500
GRID         292        0.383333-0.01000-0.01500
GRID         293        0.416667-0.01000-0.01500
GRID         294        0.450000-0.01000-0.01500
GRID         295        0.483333-0.01000-0.01500
GRID         296        0.516667-0.01000-0.01500
GRID         297        0.550000-0.01000-0.01500
GRID         298        0.583333-0.01000-0.01500
GRID         299        0.616667-0.01000-0.01500
GRID         300        0.650000-0.01000-0.01500
GRID         301        0.683333-0.01000-0.01500
GRID         302        0.716667-0.01000-0.01500
GRID         303        0.750000-0.01000-0.01500
GRID         304        0.783333-0.01000-0.01500
GRID         305        0.816667-0.01000-0.01500
GRID         306        0.850000-0.01000-0.01500
GRID         307        0.883333-0.01000-0.01500
GRID         308        0.916667-0.01000-0.01500
GRID         309        0.950000-0.01000-0.01500
GRID         310        0.983333-0.01000-0.01500
GRID         311         1.01667-0.01000-0.01500
GRID         312         1.05000-0.01000-0.01500
GRID         313         1.08333-0.01000-0.01500
GRID         314        0.100000-0.005000.015000
GRID         315        0.1000000.0050000.015000
GRID         316        0.116667-0.010000.015000
GRID         317        0.150000-0.010000.015000
GRID         318        0.183333-0.010000.015000
GRID         319        0.216667-0.010000.015000
GRID         320        0.250000-0.010000.015000
GRID         321        0.283333-0.010000.015000
GRID         322        0.316667-0.010000.015000
GRID         323        0.350000-0.010000.015000
GRID         324        0.383333-0.010000.015000
GRID         325        0.416667-0.010000.015000
GRID         326        0.450000-0.010000.015000
GRID         327        0.483333-0.010000.015000
GRID         328        0.516667-0.010000.015000
GRID         329        0.550000-0.010000.015000
GRID         330        0.583333-0.010000.015000
GRID         331        0.616667-0.010000.015000
GRID         332        0.650000-0.010000.015000
GRID         333        0.683333-0.010000.015000
GRID         334        0.716667-0.010000.015000
GRID         335        0.750000-0.010000.015000
GRID         336        0.783333-0.010000.015000
GRID         337        0.816667-0.010000.015000
GRID         338        0.850000-0.010000.015000
GRID         339        0.883333-0.010000.015000
GRID         340        0.916667-0.010000.015000
GRID         341        0.950000-0.010000.015000
GRID         342        0.983333-0.010000.015000
GRID         343         1.01667-0.010000.015000
GRID         344         1.05000-0.010000.015000
GRID         345         1.08333-0.010000.015000
GRID         346        0.1000000.010000-0.00750
GRID         347        0.1000000.0100000.007500
GRID         348        0.1166670.010000-0.01500
GRID         349        0.1500000.010000-0.01500
GRID         350        0.1833330.010000-0.01500
GRID         351        0.2166670.010000-0.01500
GRID         352        0.2500000.010000-0.01500
GRID         353        0.2833330.010000-0.01500
GRID         354        0.3166670.010000-0.01500
GRID         355        0.3500000.010000-0.01500
GRID         356        0.3833330.010000-0.01500
GRID         357        0.4166670.010000-0.01500
GRID         358        0.4500000.010000-0.01500
GRID         359        0.4833330.010000-0.01500
GRID         360        0.5166670.010000-0.01500
GRID         361        0.5500000.010000-0.01500
GRID         362        0.5833330.010000-0.01500
GRID         363        0.6166670.010000-0.01500
GRID         364        0.6500000.010000-0.01500
GRID         365        0.6833330.010000-0.01500
GRID         366        0.7166670.010000-0.01500
GRID         367        0.7500000.010000-0.01500
GRID         368        0.7833330.010000-0.01500
GRID         369        0.8166670.010000-0.01500
GRID         370        0.8500000.010000-0.01500
GRID         371        0.8833330.010000-0.01500
GRID         372        0.9166670.010000-0.01500
GRID         373        0.9500000.010000-0.01500
GRID         374        0.9833330.010000-0.01500
GRID         375         1.016670.010000-0.01500
GRID         376         1.050000.010000-0.01500
GRID         377         1.083330.010000-0.01500
GRID         378        0.1166670.0100000.015000
GRID         379        0.1500000.0100000.015000
GRID         380        0.1833330.0100000.015000
GRID         381        0.2166670.0100000.015000
GRID         382        0.2500000.0100000.015000
GRID         383        0.2833330.0100000.015000
GRID         384        0.3166670.0100000.015000
GRID         385        0.3500000.0100000.015000
GRID         386        0.3833330.0100000.015000
GRID         387        0.4166670.0100000.015000
GRID         388        0.4500000.0100000.015000
GRID         389        0.4833330.0100000.015000
GRID         390        0.5166670.0100000.015000
GRID         391        0.5500000.0100000.015000
GRID         392        0.5833330.0100000.015000
GRID         393        0.6166670.0100000.015000
GRID         394        0.6500000.0100000.015000
GRID         395        0.6833330.0100000.015000
GRID         396        0.7166670.0100000.015000
GRID         397        0.7500000.0100000.015000
GRID         398        0.7833330.0100000.015000
GRID         399        0.8166670.0100000.015000
GRID         400        0.8500000.0100000.015000
GRID         401        0.8833330.0100000.015000
GRID         402        0.9166670.0100000.015000
GRID         403        0.9500000.0100000.015000
GRID         404        0.9833330.0100000.015000
GRID         405         1.016670.0100000.015000
GRID         406         1.050000.0100000.015000
GRID         407         1.083330.0100000.015000
GRID         408         1.10000-0.01000-0.00750
GRID         409         1.10000-0.010000.007500
GRID         410         1.10000-0.00500-0.01500
GRID         411         1.100000.005000-0.01500
GRID         412         1.10000-0.005000.015000
GRID         413         1.100000.0050000.015000
GRID         414         1.100000.010000-0.00750
GRID         415         1.100000.0100000.007500
GRID         416        0.100000-0.005001.57E-18
GRID         417        0.100000-5.8E-19-0.00750
GRID         418        0.1000000.0050002.54E-18
GRID         419        0.100000-5.8E-190.007500
GRID         420        0.133333-0.01000-0.00750
GRID         421        0.116667-0.010003.52E-19
GRID         422        0.166667-0.01000-0.00750
GRID         423        0.150000-0.01000 0.00000
GRID         424        0.133333-0.010000.007500
GRID         425        0.200000-0.01000-0.00750
GRID         426        0.183333-0.010001.22E-18
GRID         427        0.166667-0.010000.007500
GRID         428        0.233333-0.01000-0.00750
GRID         429        0.216667-0.010001.22E-18
GRID         430        0.200000-0.010000.007500
GRID         431        0.266667-0.01000-0.00750
GRID         432        0.250000-0.01000 0.00000
GRID         433        0.233333-0.010000.007500
GRID         434        0.300000-0.01000-0.00750
GRID         435        0.283333-0.01000 0.00000
GRID         436        0.266667-0.010000.007500
GRID         437        0.333333-0.01000-0.00750
GRID         438        0.316667-0.01000 0.00000
GRID         439        0.300000-0.010000.007500
GRID         440        0.366667-0.01000-0.00750
GRID         441        0.350000-0.01000 0.00000
GRID         442        0.333333-0.010000.007500
GRID         443        0.400000-0.01000-0.00750
GRID         444        0.383333-0.01000 0.00000
GRID         445        0.366667-0.010000.007500
GRID         446        0.433333-0.01000-0.00750
GRID         447        0.416667-0.01000 0.00000
GRID         448        0.400000-0.010000.007500
GRID         449        0.466667-0.01000-0.00750
GRID         450        0.450000-0.01000 0.00000
GRID         451        0.433333-0.010000.007500
GRID         452        0.500000-0.01000-0.00750
GRID         453        0.483333-0.01000 0.00000
GRID         454        0.466667-0.010000.007500
GRID         455        0.533333-0.01000-0.00750
GRID         456        0.516667-0.010001.22E-18
GRID         457        0.500000-0.010000.007500
GRID         458        0.566667-0.01000-0.00750
GRID         459        0.550000-0.010001.22E-18
GRID         460        0.533333-0.010000.007500
GRID         461        0.600000-0.01000-0.00750
GRID         462        0.583333-0.01000 0.00000
GRID         463        0.566667-0.010000.007500
GRID         464        0.633333-0.01000-0.00750
GRID         465        0.616667-0.01000 0.00000
GRID         466        0.600000-0.010000.007500
GRID         467        0.666667-0.01000-0.00750
GRID         468        0.650000-0.01000 0.00000
GRID         469        0.633333-0.010000.007500
GRID         470        0.700000-0.01000-0.00750
GRID         471        0.683333-0.010002.44E-18
GRID         472        0.666667-0.010000.007500
GRID         473        0.733333-0.01000-0.00750
GRID         474        0.716667-0.010002.44E-18
GRID         475        0.700000-0.010000.007500
GRID         476        0.766667-0.01000-0.00750
GRID         477        0.750000-0.01000 0.00000
GRID         478        0.733333-0.010000.007500
GRID         479        0.800000-0.01000-0.00750
GRID         480        0.783333-0.01000 0.00000
GRID         481        0.766667-0.010000.007500
GRID         482        0.833333-0.01000-0.00750
GRID         483        0.816667-0.01000 0.00000
GRID         484        0.800000-0.010000.007500
GRID         485        0.866667-0.01000-0.00750
GRID         486        0.850000-0.01000 0.00000
GRID         487        0.833333-0.010000.007500
GRID         488        0.900000-0.01000-0.00750
GRID         489        0.883333-0.01000-1.2E-18
GRID         490        0.866667-0.010000.007500
GRID         491        0.933333-0.01000-0.00750
GRID         492        0.916667-0.01000-1.2E-18
GRID         493        0.900000-0.010000.007500
GRID         494        0.966667-0.01000-0.00750
GRID         495        0.950000-0.01000-1.2E-18
GRID         496        0.933333-0.010000.007500
GRID         497         1.00000-0.01000-0.00750
GRID         498        0.983333-0.010001.22E-18
GRID         499        0.966667-0.010000.007500
GRID         500         1.03333-0.01000-0.00750
GRID         501         1.01667-0.010002.44E-18
GRID         502         1.00000-0.010000.007500
GRID         503         1.06667-0.01000-0.00750
GRID         504         1.05000-0.01000 0.00000
GRID         505         1.03333-0.010000.007500
GRID         506         1.08333-0.010003.52E-19
GRID         507         1.06667-0.010000.007500
GRID         508        0.1166672.71E-20-0.01500
GRID         509        0.133333-0.00500-0.01500
GRID         510        0.150000 0.00000-0.01500
GRID         511        0.166667-0.00500-0.01500
GRID         512        0.1333330.005000-0.01500
GRID         513        0.183333 0.00000-0.01500
GRID         514        0.200000-0.00500-0.01500
GRID         515        0.1666670.005000-0.01500
GRID         516        0.216667 0.00000-0.01500
GRID         517        0.233333-0.00500-0.01500
GRID         518        0.2000000.005000-0.01500
GRID         519        0.250000 0.00000-0.01500
GRID         520        0.266667-0.00500-0.01500
GRID         521        0.2333330.005000-0.01500
GRID         522        0.2833331.22E-18-0.01500
GRID         523        0.300000-0.00500-0.01500
GRID         524        0.2666670.005000-0.01500
GRID         525        0.3166672.44E-18-0.01500
GRID         526        0.333333-0.00500-0.01500
GRID         527        0.3000000.005000-0.01500
GRID         528        0.3500003.05E-18-0.01500
GRID         529        0.366667-0.00500-0.01500
GRID         530        0.3333330.005000-0.01500
GRID         531        0.3833332.44E-18-0.01500
GRID         532        0.400000-0.00500-0.01500
GRID         533        0.3666670.005000-0.01500
GRID         534        0.4166672.44E-18-0.01500
GRID         535        0.433333-0.00500-0.01500
GRID         536        0.4000000.005000-0.01500
GRID         537        0.4500003.66E-18-0.01500
GRID         538        0.466667-0.00500-0.01500
GRID         539        0.4333330.005000-0.01500
GRID         540        0.4833333.05E-18-0.01500
GRID         541        0.500000-0.00500-0.01500
GRID         542        0.4666670.005000-0.01500
GRID         543        0.5166676.10E-19-0.01500
GRID         544        0.533333-0.00500-0.01500
GRID         545        0.5000000.005000-0.01500
GRID         546        0.550000-6.1E-19-0.01500
GRID         547        0.566667-0.00500-0.01500
GRID         548        0.5333330.005000-0.01500
GRID         549        0.5833336.10E-19-0.01500
GRID         550        0.600000-0.00500-0.01500
GRID         551        0.5666670.005000-0.01500
GRID         552        0.616667 0.00000-0.01500
GRID         553        0.633333-0.00500-0.01500
GRID         554        0.6000000.005000-0.01500
GRID         555        0.650000 0.00000-0.01500
GRID         556        0.666667-0.00500-0.01500
GRID         557        0.6333330.005000-0.01500
GRID         558        0.6833331.22E-18-0.01500
GRID         559        0.700000-0.00500-0.01500
GRID         560        0.6666670.005000-0.01500
GRID         561        0.7166671.83E-18-0.01500
GRID         562        0.733333-0.00500-0.01500
GRID         563        0.7000000.005000-0.01500
GRID         564        0.7500003.05E-18-0.01500
GRID         565        0.766667-0.00500-0.01500
GRID         566        0.7333330.005000-0.01500
GRID         567        0.7833333.66E-18-0.01500
GRID         568        0.800000-0.00500-0.01500
GRID         569        0.7666670.005000-0.01500
GRID         570        0.8166672.44E-18-0.01500
GRID         571        0.833333-0.00500-0.01500
GRID         572        0.8000000.005000-0.01500
GRID         573        0.8500001.22E-18-0.01500
GRID         574        0.866667-0.00500-0.01500
GRID         575        0.8333330.005000-0.01500
GRID         576        0.8833331.22E-18-0.01500
GRID         577        0.900000-0.00500-0.01500
GRID         578        0.8666670.005000-0.01500
GRID         579        0.916667 0.00000-0.01500
GRID         580        0.933333-0.00500-0.01500
GRID         581        0.9000000.005000-0.01500
GRID         582        0.950000-1.2E-18-0.01500
GRID         583        0.966667-0.00500-0.01500
GRID         584        0.9333330.005000-0.01500
GRID         585        0.983333 0.00000-0.01500
GRID         586         1.00000-0.00500-0.01500
GRID         587        0.9666670.005000-0.01500
GRID         588         1.016671.22E-18-0.01500
GRID         589         1.03333-0.00500-0.01500
GRID         590         1.000000.005000-0.01500
GRID         591         1.050001.22E-18-0.01500
GRID         592         1.06667-0.00500-0.01500
GRID         593         1.033330.005000-0.01500
GRID         594         1.083335.83E-19-0.01500
GRID         595         1.066670.005000-0.01500
GRID         596        0.133333-0.005000.015000
GRID         597        0.1166672.71E-200.015000
GRID         598        0.166667-0.005000.015000
GRID         599        0.150000-6.1E-190.015000
GRID         600        0.1333330.0050000.015000
GRID         601        0.200000-0.005000.015000
GRID         602        0.183333-6.1E-190.015000
GRID         603        0.1666670.0050000.015000
GRID         604        0.233333-0.005000.015000
GRID         605        0.2166671.22E-180.015000
GRID         606        0.2000000.0050000.015000
GRID         607        0.266667-0.005000.015000
GRID         608        0.2500001.83E-180.015000
GRID         609        0.2333330.0050000.015000
GRID         610        0.300000-0.005000.015000
GRID         611        0.2833331.83E-180.015000
GRID         612        0.2666670.0050000.015000
GRID         613        0.333333-0.005000.015000
GRID         614        0.3166672.44E-180.015000
GRID         615        0.3000000.0050000.015000
GRID         616        0.366667-0.005000.015000
GRID         617        0.3500003.05E-180.015000
GRID         618        0.3333330.0050000.015000
GRID         619        0.400000-0.005000.015000
GRID         620        0.3833333.05E-180.015000
GRID         621        0.3666670.0050000.015000
GRID         622        0.433333-0.005000.015000
GRID         623        0.416667 0.000000.015000
GRID         624        0.4000000.0050000.015000
GRID         625        0.466667-0.005000.015000
GRID         626        0.450000 0.000000.015000
GRID         627        0.4333330.0050000.015000
GRID         628        0.500000-0.005000.015000
GRID         629        0.483333-6.1E-190.015000
GRID         630        0.4666670.0050000.015000
GRID         631        0.533333-0.005000.015000
GRID         632        0.516667-2.4E-180.015000
GRID         633        0.5000000.0050000.015000
GRID         634        0.566667-0.005000.015000
GRID         635        0.550000-1.8E-180.015000
GRID         636        0.5333330.0050000.015000
GRID         637        0.600000-0.005000.015000
GRID         638        0.583333-6.1E-190.015000
GRID         639        0.5666670.0050000.015000
GRID         640        0.633333-0.005000.015000
GRID         641        0.616667-6.1E-190.015000
GRID         642        0.6000000.0050000.015000
GRID         643        0.666667-0.005000.015000
GRID         644        0.650000-1.2E-180.015000
GRID         645        0.6333330.0050000.015000
GRID         646        0.700000-0.005000.015000
GRID         647        0.683333 0.000000.015000
GRID         648        0.6666670.0050000.015000
GRID         649        0.733333-0.005000.015000
GRID         650        0.716667 0.000000.015000
GRID         651        0.7000000.0050000.015000
GRID         652        0.766667-0.005000.015000
GRID         653        0.7500006.10E-190.015000
GRID         654        0.7333330.0050000.015000
GRID         655        0.800000-0.005000.015000
GRID         656        0.7833331.22E-180.015000
GRID         657        0.7666670.0050000.015000
GRID         658        0.833333-0.005000.015000
GRID         659        0.8166676.10E-190.015000
GRID         660        0.8000000.0050000.015000
GRID         661        0.866667-0.005000.015000
GRID         662        0.850000 0.000000.015000
GRID         663        0.8333330.0050000.015000
GRID         664        0.900000-0.005000.015000
GRID         665        0.883333 0.000000.015000
GRID         666        0.8666670.0050000.015000
GRID         667        0.933333-0.005000.015000
GRID         668        0.916667 0.000000.015000
GRID         669        0.9000000.0050000.015000
GRID         670        0.966667-0.005000.015000
GRID         671        0.950000 0.000000.015000
GRID         672        0.9333330.0050000.015000
GRID         673         1.00000-0.005000.015000
GRID         674        0.983333 0.000000.015000
GRID         675        0.9666670.0050000.015000
GRID         676         1.03333-0.005000.015000
GRID         677         1.01667-1.2E-180.015000
GRID         678         1.000000.0050000.015000
GRID         679         1.06667-0.005000.015000
GRID         680         1.05000-1.2E-180.015000
GRID         681         1.033330.0050000.015000
GRID         682         1.08333-2.7E-200.015000
GRID         683         1.066670.0050000.015000
GRID         684        0.1166670.0100002.54E-18
GRID         685        0.1333330.010000-0.00750
GRID         686        0.1500000.0100002.44E-18
GRID         687        0.1666670.010000-0.00750
GRID         688        0.1333330.0100000.007500
GRID         689        0.1833330.0100003.66E-18
GRID         690        0.2000000.010000-0.00750
GRID         691        0.1666670.0100000.007500
GRID         692        0.2166670.0100003.66E-18
GRID         693        0.2333330.010000-0.00750
GRID         694        0.2000000.0100000.007500
GRID         695        0.2500000.0100002.44E-18
GRID         696        0.2666670.010000-0.00750
GRID         697        0.2333330.0100000.007500
GRID         698        0.2833330.0100002.44E-18
GRID         699        0.3000000.010000-0.00750
GRID         700        0.2666670.0100000.007500
GRID         701        0.3166670.0100002.44E-18
GRID         702        0.3333330.010000-0.00750
GRID         703        0.3000000.0100000.007500
GRID         704        0.3500000.0100002.44E-18
GRID         705        0.3666670.010000-0.00750
GRID         706        0.3333330.0100000.007500
GRID         707        0.3833330.0100002.44E-18
GRID         708        0.4000000.010000-0.00750
GRID         709        0.3666670.0100000.007500
GRID         710        0.4166670.0100002.44E-18
GRID         711        0.4333330.010000-0.00750
GRID         712        0.4000000.0100000.007500
GRID         713        0.4500000.0100002.44E-18
GRID         714        0.4666670.010000-0.00750
GRID         715        0.4333330.0100000.007500
GRID         716        0.4833330.0100002.44E-18
GRID         717        0.5000000.010000-0.00750
GRID         718        0.4666670.0100000.007500
GRID         719        0.5166670.0100003.66E-18
GRID         720        0.5333330.010000-0.00750
GRID         721        0.5000000.0100000.007500
GRID         722        0.5500000.0100003.66E-18
GRID         723        0.5666670.010000-0.00750
GRID         724        0.5333330.0100000.007500
GRID         725        0.5833330.0100002.44E-18
GRID         726        0.6000000.010000-0.00750
GRID         727        0.5666670.0100000.007500
GRID         728        0.6166670.0100003.66E-18
GRID         729        0.6333330.010000-0.00750
GRID         730        0.6000000.0100000.007500
GRID         731        0.6500000.0100003.66E-18
GRID         732        0.6666670.010000-0.00750
GRID         733        0.6333330.0100000.007500
GRID         734        0.6833330.0100004.88E-18
GRID         735        0.7000000.010000-0.00750
GRID         736        0.6666670.0100000.007500
GRID         737        0.7166670.0100004.88E-18
GRID         738        0.7333330.010000-0.00750
GRID         739        0.7000000.0100000.007500
GRID         740        0.7500000.0100002.44E-18
GRID         741        0.7666670.010000-0.00750
GRID         742        0.7333330.0100000.007500
GRID         743        0.7833330.0100002.44E-18
GRID         744        0.8000000.010000-0.00750
GRID         745        0.7666670.0100000.007500
GRID         746        0.8166670.0100002.44E-18
GRID         747        0.8333330.010000-0.00750
GRID         748        0.8000000.0100000.007500
GRID         749        0.8500000.0100002.44E-18
GRID         750        0.8666670.010000-0.00750
GRID         751        0.8333330.0100000.007500
GRID         752        0.8833330.0100001.22E-18
GRID         753        0.9000000.010000-0.00750
GRID         754        0.8666670.0100000.007500
GRID         755        0.9166670.0100001.22E-18
GRID         756        0.9333330.010000-0.00750
GRID         757        0.9000000.0100000.007500
GRID         758        0.9500000.0100001.22E-18
GRID         759        0.9666670.010000-0.00750
GRID         760        0.9333330.0100000.007500
GRID         761        0.9833330.0100003.66E-18
GRID         762         1.000000.010000-0.00750
GRID         763        0.9666670.0100000.007500
GRID         764         1.016670.0100004.88E-18
GRID         765         1.033330.010000-0.00750
GRID         766         1.000000.0100000.007500
GRID         767         1.050000.0100002.44E-18
GRID         768         1.066670.010000-0.00750
GRID         769         1.033330.0100000.007500
GRID         770         1.083330.0100002.54E-18
GRID         771         1.066670.0100000.007500
GRID         772         1.10000-2.7E-20-0.00750
GRID         773         1.10000-0.005003.52E-19
GRID         774         1.100000.0050001.32E-18
GRID         775         1.10000-2.7E-200.007500
GRID         776        0.133333 0.00000-0.00750
GRID         777        0.133333-0.005006.10E-19
GRID         778        0.116667-6.1E-191.83E-18
GRID         779        0.166667 0.00000-0.00750
GRID         780        0.166667-0.005006.10E-19
GRID         781        0.150000 0.000001.22E-18
GRID         782        0.1333330.0050001.83E-18
GRID         783        0.133333 0.000000.007500
GRID         784        0.200000 0.00000-0.00750
GRID         785        0.200000-0.005003.05E-18
GRID         786        0.183333 0.000002.44E-18
GRID         787        0.1666670.0050001.83E-18
GRID         788        0.166667-6.1E-190.007500
GRID         789        0.233333 0.00000-0.00750
GRID         790        0.233333-0.005006.10E-19
GRID         791        0.216667 0.000002.44E-18
GRID         792        0.2000000.0050004.27E-18
GRID         793        0.200000 0.000000.007500
GRID         794        0.266667 0.00000-0.00750
GRID         795        0.266667-0.005006.10E-19
GRID         796        0.250000 0.000001.22E-18
GRID         797        0.2333330.0050001.83E-18
GRID         798        0.2333331.22E-180.007500
GRID         799        0.3000001.22E-18-0.00750
GRID         800        0.300000-0.005006.10E-19
GRID         801        0.283333 0.000001.22E-18
GRID         802        0.2666670.0050001.83E-18
GRID         803        0.2666676.10E-190.007500
GRID         804        0.3333331.22E-18-0.00750
GRID         805        0.333333-0.005006.10E-19
GRID         806        0.316667 0.000001.22E-18
GRID         807        0.3000000.0050001.83E-18
GRID         808        0.3000001.22E-180.007500
GRID         809        0.3666671.83E-18-0.00750
GRID         810        0.366667-0.005006.10E-19
GRID         811        0.350000 0.000001.22E-18
GRID         812        0.3333330.0050001.83E-18
GRID         813        0.3333331.22E-180.007500
GRID         814        0.4000006.10E-19-0.00750
GRID         815        0.400000-0.005006.10E-19
GRID         816        0.383333 0.000001.22E-18
GRID         817        0.3666670.0050001.83E-18
GRID         818        0.3666671.83E-180.007500
GRID         819        0.4333331.83E-18-0.00750
GRID         820        0.433333-0.005006.10E-19
GRID         821        0.416667 0.000001.22E-18
GRID         822        0.4000000.0050001.83E-18
GRID         823        0.4000001.22E-180.007500
GRID         824        0.4666671.83E-18-0.00750
GRID         825        0.466667-0.005006.10E-19
GRID         826        0.450000 0.000001.22E-18
GRID         827        0.4333330.0050001.83E-18
GRID         828        0.433333-1.2E-180.007500
GRID         829        0.5000001.22E-18-0.00750
GRID         830        0.500000-0.005006.10E-19
GRID         831        0.483333 0.000001.22E-18
GRID         832        0.4666670.0050001.83E-18
GRID         833        0.4666671.22E-180.007500
GRID         834        0.533333-6.1E-19-0.00750
GRID         835        0.533333-0.005003.05E-18
GRID         836        0.516667 0.000002.44E-18
GRID         837        0.5000000.0050001.83E-18
GRID         838        0.500000-1.8E-180.007500
GRID         839        0.566667 0.00000-0.00750
GRID         840        0.566667-0.005006.10E-19
GRID         841        0.550000 0.000002.44E-18
GRID         842        0.5333330.0050004.27E-18
GRID         843        0.533333-6.1E-190.007500
GRID         844        0.6000006.10E-19-0.00750
GRID         845        0.600000-0.005006.10E-19
GRID         846        0.583333 0.000001.22E-18
GRID         847        0.5666670.0050001.83E-18
GRID         848        0.566667-1.2E-180.007500
GRID         849        0.633333-6.1E-19-0.00750
GRID         850        0.633333-0.005001.22E-18
GRID         851        0.616667 0.000001.83E-18
GRID         852        0.6000000.0050001.83E-18
GRID         853        0.6000006.10E-190.007500
GRID         854        0.6666676.10E-19-0.00750
GRID         855        0.666667-0.005006.10E-19
GRID         856        0.650000 0.000001.83E-18
GRID         857        0.6333330.0050003.66E-18
GRID         858        0.633333-1.2E-180.007500
GRID         859        0.7000006.10E-19-0.00750
GRID         860        0.700000-0.005005.49E-18
GRID         861        0.683333 0.000003.66E-18
GRID         862        0.6666670.0050001.83E-18
GRID         863        0.666667 0.000000.007500
GRID         864        0.7333331.22E-18-0.00750
GRID         865        0.733333-0.005006.10E-19
GRID         866        0.716667 0.000003.66E-18
GRID         867        0.7000000.0050006.71E-18
GRID         868        0.700000 0.000000.007500
GRID         869        0.7666671.83E-18-0.00750
GRID         870        0.766667-0.005006.10E-19
GRID         871        0.750000 0.000001.22E-18
GRID         872        0.7333330.0050001.83E-18
GRID         873        0.733333 0.000000.007500
GRID         874        0.8000001.83E-18-0.00750
GRID         875        0.800000-0.005006.10E-19
GRID         876        0.783333 0.000001.22E-18
GRID         877        0.7666670.0050001.83E-18
GRID         878        0.7666676.10E-190.007500
GRID         879        0.8333336.10E-19-0.00750
GRID         880        0.833333-0.005006.10E-19
GRID         881        0.816667 0.000001.22E-18
GRID         882        0.8000000.0050001.83E-18
GRID         883        0.8000006.10E-190.007500
GRID         884        0.8666676.10E-19-0.00750
GRID         885        0.866667-0.005006.10E-19
GRID         886        0.850000 0.000001.22E-18
GRID         887        0.8333330.0050001.83E-18
GRID         888        0.833333 0.000000.007500
GRID         889        0.9000006.10E-19-0.00750
GRID         890        0.900000-0.00500-1.8E-18
GRID         891        0.883333 0.00000 0.00000
GRID         892        0.8666670.0050001.83E-18
GRID         893        0.866667 0.000000.007500
GRID         894        0.933333-6.1E-19-0.00750
GRID         895        0.933333-0.005006.10E-19
GRID         896        0.916667 0.00000 0.00000
GRID         897        0.9000000.005000-6.1E-19
GRID         898        0.900000 0.000000.007500
GRID         899        0.966667-6.1E-19-0.00750
GRID         900        0.966667-0.00500-1.8E-18
GRID         901        0.950000 0.00000 0.00000
GRID         902        0.9333330.0050001.83E-18
GRID         903        0.933333 0.000000.007500
GRID         904         1.000006.10E-19-0.00750
GRID         905         1.00000-0.005005.49E-18
GRID         906        0.983333 0.000002.44E-18
GRID         907        0.9666670.005000-6.1E-19
GRID         908        0.966667 0.000000.007500
GRID         909         1.033336.10E-19-0.00750
GRID         910         1.03333-0.005006.10E-19
GRID         911         1.01667 0.000003.66E-18
GRID         912         1.000000.0050006.71E-18
GRID         913         1.00000 0.000000.007500
GRID         914         1.066676.10E-19-0.00750
GRID         915         1.06667-0.005006.10E-19
GRID         916         1.05000 0.000001.22E-18
GRID         917         1.033330.0050001.83E-18
GRID         918         1.03333-1.2E-180.007500
GRID         919         1.08333 0.000006.10E-19
GRID         920         1.066670.0050001.83E-18
GRID         921         1.06667 0.000000.007500
$ Element data section
CHEXA          1       1       1       2       6       3       4       7+CONT
+CONT         15       9     284     509     508     282     280     420+CONT
+CONT        776     417     421     777     778     416
CHEXA          2       1       2       5      12       6       7      13+CONT
+CONT         23      15     285     511     510     509     420     422+CONT
+CONT        779     776     423     780     781     777
CHEXA          3       1       3       6      14       8       9      15+CONT
+CONT         25      17     508     512     348     283     417     776+CONT
+CONT        685     346     778     782     684     418
CHEXA          4       1       4       7      15       9      10      16+CONT
+CONT         26      18     421     777     778     416     281     424+CONT
+CONT        783     419     316     596     597     314
CHEXA          5       1       5      11      20      12      13      21+CONT
+CONT         32      23     286     514     513     511     422     425+CONT
+CONT        784     779     426     785     786     780
CHEXA          6       1       6      12      22      14      15      23+CONT
+CONT         34      25     510     515     349     512     776     779+CONT
+CONT        687     685     781     787     686     782
CHEXA          7       1       7      13      23      15      16      24+CONT
+CONT         35      26     423     780     781     777     424     427+CONT
+CONT        788     783     317     598     599     596
CHEXA          8       1       9      15      25      17      18      26+CONT
+CONT         36      27     778     782     684     418     419     783+CONT
+CONT        688     347     597     600     378     315
CHEXA          9       1      11      19      29      20      21      30+CONT
+CONT         41      32     287     517     516     514     425     428+CONT
+CONT        789     784     429     790     791     785
CHEXA         10       1      12      20      31      22      23      32+CONT
+CONT         43      34     513     518     350     515     779     784+CONT
+CONT        690     687     786     792     689     787
CHEXA         11       1      13      21      32      23      24      33+CONT
+CONT         44      35     426     785     786     780     427     430+CONT
+CONT        793     788     318     601     602     598
CHEXA         12       1      15      23      34      25      26      35+CONT
+CONT         45      36     781     787     686     782     783     788+CONT
+CONT        691     688     599     603     379     600
CHEXA         13       1      19      28      38      29      30      39+CONT
+CONT         50      41     288     520     519     517     428     431+CONT
+CONT        794     789     432     795     796     790
CHEXA         14       1      20      29      40      31      32      41+CONT
+CONT         52      43     516     521     351     518     784     789+CONT
+CONT        693     690     791     797     692     792
CHEXA         15       1      21      30      41      32      33      42+CONT
+CONT         53      44     429     790     791     785     430     433+CONT
+CONT        798     793     319     604     605     601
CHEXA         16       1      23      32      43      34      35      44+CONT
+CONT         54      45     786     792     689     787     788     793+CONT
+CONT        694     691     602     606     380     603
CHEXA         17       1      28      37      47      38      39      48+CONT
+CONT         59      50     289     523     522     520     431     434+CONT
+CONT        799     794     435     800     801     795
CHEXA         18       1      29      38      49      40      41      50+CONT
+CONT         61      52     519     524     352     521     789     794+CONT
+CONT        696     693     796     802     695     797
CHEXA         19       1      30      39      50      41      42      51+CONT
+CONT         62      53     432     795     796     790     433     436+CONT
+CONT        803     798     320     607     608     604
CHEXA         20       1      32      41      52      43      44      53+CONT
+CONT         63      54     791     797     692     792     793     798+CONT
+CONT        697     694     605     609     381     606
CHEXA         21       1      37      46      56      47      48      57+CONT
+CONT         68      59     290     526     525     523     434     437+CONT
+CONT        804     799     438     805     806     800
CHEXA         22       1      38      47      58      49      50      59+CONT
+CONT         70      61     522     527     353     524     794     799+CONT
+CONT        699     696     801     807     698     802
CHEXA         23       1      39      48      59      50      51      60+CONT
+CONT         71      62     435     800     801     795     436     439+CONT
+CONT        808     803     321     610     611     607
CHEXA         24       1      41      50      61      52      53      62+CONT
+CONT         72      63     796     802     695     797     798     803+CONT
+CONT        700     697     608     612     382     609
CHEXA         25       1      46      55      65      56      57      66+CONT
+CONT         77      68     291     529     528     526     437     440+CONT
+CONT        809     804     441     810     811     805
CHEXA         26       1      47      56      67      58      59      68+CONT
+CONT         79      70     525     530     354     527     799     804+CONT
+CONT        702     699     806     812     701     807
CHEXA         27       1      48      57      68      59      60      69+CONT
+CONT         80      71     438     805     806     800     439     442+CONT
+CONT        813     808     322     613     614     610
CHEXA         28       1      50      59      70      61      62      71+CONT
+CONT         81      72     801     807     698     802     803     808+CONT
+CONT        703     700     611     615     383     612
CHEXA         29       1      55      64      74      65      66      75+CONT
+CONT         86      77     292     532     531     529     440     443+CONT
+CONT        814     809     444     815     816     810
CHEXA         30       1      56      65      76      67      68      77+CONT
+CONT         88      79     528     533     355     530     804     809+CONT
+CONT        705     702     811     817     704     812
CHEXA         31       1      57      66      77      68      69      78+CONT
+CONT         89      80     441     810     811     805     442     445+CONT
+CONT        818     813     323     616     617     613
CHEXA         32       1      59      68      79      70      71      80+CONT
+CONT         90      81     806     812     701     807     808     813+CONT
+CONT        706     703     614     618     384     615
CHEXA         33       1      64      73      83      74      75      84+CONT
+CONT         95      86     293     535     534     532     443     446+CONT
+CONT        819     814     447     820     821     815
CHEXA         34       1      65      74      85      76      77      86+CONT
+CONT         97      88     531     536     356     533     809     814+CONT
+CONT        708     705     816     822     707     817
CHEXA         35       1      66      75      86      77      78      87+CONT
+CONT         98      89     444     815     816     810     445     448+CONT
+CONT        823     818     324     619     620     616
CHEXA         36       1      68      77      88      79      80      89+CONT
+CONT         99      90     811     817     704     812     813     818+CONT
+CONT        709     706     617     621     385     618
CHEXA         37       1      73      82      92      83      84      93+CONT
+CONT        104      95     294     538     537     535     446     449+CONT
+CONT        824     819     450     825     826     820
CHEXA         38       1      74      83      94      85      86      95+CONT
+CONT        106      97     534     539     357     536     814     819+CONT
+CONT        711     708     821     827     710     822
CHEXA         39       1      75      84      95      86      87      96+CONT
+CONT        107      98     447     820     821     815     448     451+CONT
+CONT        828     823     325     622     623     619
CHEXA         40       1      77      86      97      88      89      98+CONT
+CONT        108      99     816     822     707     817     818     823+CONT
+CONT        712     709     620     624     386     621
CHEXA         41       1      82      91     101      92      93     102+CONT
+CONT        113     104     295     541     540     538     449     452+CONT
+CONT        829     824     453     830     831     825
CHEXA         42       1      83      92     103      94      95     104+CONT
+CONT        115     106     537     542     358     539     819     824+CONT
+CONT        714     711     826     832     713     827
CHEXA         43       1      84      93     104      95      96     105+CONT
+CONT        116     107     450     825     826     820     451     454+CONT
+CONT        833     828     326     625     626     622
CHEXA         44       1      86      95     106      97      98     107+CONT
+CONT        117     108     821     827     710     822     823     828+CONT
+CONT        715     712     623     627     387     624
CHEXA         45       1      91     100     110     101     102     111+CONT
+CONT        122     113     296     544     543     541     452     455+CONT
+CONT        834     829     456     835     836     830
CHEXA         46       1      92     101     112     103     104     113+CONT
+CONT        124     115     540     545     359     542     824     829+CONT
+CONT        717     714     831     837     716     832
CHEXA         47       1      93     102     113     104     105     114+CONT
+CONT        125     116     453     830     831     825     454     457+CONT
+CONT        838     833     327     628     629     625
CHEXA         48       1      95     104     115     106     107     116+CONT
+CONT        126     117     826     832     713     827     828     833+CONT
+CONT        718     715     626     630     388     627
CHEXA         49       1     100     109     119     110     111     120+CONT
+CONT        131     122     297     547     546     544     455     458+CONT
+CONT        839     834     459     840     841     835
CHEXA         50       1     101     110     121     112     113     122+CONT
+CONT        133     124     543     548     360     545     829     834+CONT
+CONT        720     717     836     842     719     837
CHEXA         51       1     102     111     122     113     114     123+CONT
+CONT        134     125     456     835     836     830     457     460+CONT
+CONT        843     838     328     631     632     628
CHEXA         52       1     104     113     124     115     116     125+CONT
+CONT        135     126     831     837     716     832     833     838+CONT
+CONT        721     718     629     633     389     630
CHEXA         53       1     109     118     128     119     120     129+CONT
+CONT        140     131     298     550     549     547     458     461+CONT
+CONT        844     839     462     845     846     840
CHEXA         54       1     110     119     130     121     122     131+CONT
+CONT        142     133     546     551     361     548     834     839+CONT
+CONT        723     720     841     847     722     842
CHEXA         55       1     111     120     131     122     123     132+CONT
+CONT        143     134     459     840     841     835     460     463+CONT
+CONT        848     843     329     634     635     631
CHEXA         56       1     113     122     133     124     125     134+CONT
+CONT        144     135     836     842     719     837     838     843+CONT
+CONT        724     721     632     636     390     633
CHEXA         57       1     118     127     137     128     129     138+CONT
+CONT        149     140     299     553     552     550     461     464+CONT
+CONT        849     844     465     850     851     845
CHEXA         58       1     119     128     139     130     131     140+CONT
+CONT        151     142     549     554     362     551     839     844+CONT
+CONT        726     723     846     852     725     847
CHEXA         59       1     120     129     140     131     132     141+CONT
+CONT        152     143     462     845     846     840     463     466+CONT
+CONT        853     848     330     637     638     634
CHEXA         60       1     122     131     142     133     134     143+CONT
+CONT        153     144     841     847     722     842     843     848+CONT
+CONT        727     724     635     639     391     636
CHEXA         61       1     127     136     146     137     138     147+CONT
+CONT        158     149     300     556     555     553     464     467+CONT
+CONT        854     849     468     855     856     850
CHEXA         62       1     128     137     148     139     140     149+CONT
+CONT        160     151     552     557     363     554     844     849+CONT
+CONT        729     726     851     857     728     852
CHEXA         63       1     129     138     149     140     141     150+CONT
+CONT        161     152     465     850     851     845     466     469+CONT
+CONT        858     853     331     640     641     637
CHEXA         64       1     131     140     151     142     143     152+CONT
+CONT        162     153     846     852     725     847     848     853+CONT
+CONT        730     727     638     642     392     639
CHEXA         65       1     136     145     155     146     147     156+CONT
+CONT        167     158     301     559     558     556     467     470+CONT
+CONT        859     854     471     860     861     855
CHEXA         66       1     137     146     157     148     149     158+CONT
+CONT        169     160     555     560     364     557     849     854+CONT
+CONT        732     729     856     862     731     857
CHEXA         67       1     138     147     158     149     150     159+CONT
+CONT        170     161     468     855     856     850     469     472+CONT
+CONT        863     858     332     643     644     640
CHEXA         68       1     140     149     160     151     152     161+CONT
+CONT        171     162     851     857     728     852     853     858+CONT
+CONT        733     730     641     645     393     642
CHEXA         69       1     145     154     164     155     156     165+CONT
+CONT        176     167     302     562     561     559     470     473+CONT
+CONT        864     859     474     865     866     860
CHEXA         70       1     146     155     166     157     158     167+CONT
+CONT        178     169     558     563     365     560     854     859+CONT
+CONT        735     732     861     867     734     862
CHEXA         71       1     147     156     167     158     159     168+CONT
+CONT        179     170     471     860     861     855     472     475+CONT
+CONT        868     863     333     646     647     643
CHEXA         72       1     149     158     169     160     161     170+CONT
+CONT        180     171     856     862     731     857     858     863+CONT
+CONT        736     733     644     648     394     645
CHEXA         73       1     154     163     173     164     165     174+CONT
+CONT        185     176     303     565     564     562     473     476+CONT
+CONT        869     864     477     870     871     865
CHEXA         74       1     155     164     175     166     167     176+CONT
+CONT        187     178     561     566     366     563     859     864+CONT
+CONT        738     735     866     872     737     867
CHEXA         75       1     156     165     176     167     168     177+CONT
+CONT        188     179     474     865     866     860     475     478+CONT
+CONT        873     868     334     649     650     646
CHEXA         76       1     158     167     178     169     170     179+CONT
+CONT        189     180     861     867     734     862     863     868+CONT
+CONT        739     736     647     651     395     648
CHEXA         77       1     163     172     182     173     174     183+CONT
+CONT        194     185     304     568     567     565     476     479+CONT
+CONT        874     869     480     875     876     870
CHEXA         78       1     164     173     184     175     176     185+CONT
+CONT        196     187     564     569     367     566     864     869+CONT
+CONT        741     738     871     877     740     872
CHEXA         79       1     165     174     185     176     177     186+CONT
+CONT        197     188     477     870     871     865     478     481+CONT
+CONT        878     873     335     652     653     649
CHEXA         80       1     167     176     187     178     179     188+CONT
+CONT        198     189     866     872     737     867     868     873+CONT
+CONT        742     739     650     654     396     651
CHEXA         81       1     172     181     191     182     183     192+CONT
+CONT        203     194     305     571     570     568     479     482+CONT
+CONT        879     874     483     880     881     875
CHEXA         82       1     173     182     193     184     185     194+CONT
+CONT        205     196     567     572     368     569     869     874+CONT
+CONT        744     741     876     882     743     877
CHEXA         83       1     174     183     194     185     186     195+CONT
+CONT        206     197     480     875     876     870     481     484+CONT
+CONT        883     878     336     655     656     652
CHEXA         84       1     176     185     196     187     188     197+CONT
+CONT        207     198     871     877     740     872     873     878+CONT
+CONT        745     742     653     657     397     654
CHEXA         85       1     181     190     200     191     192     201+CONT
+CONT        212     203     306     574     573     571     482     485+CONT
+CONT        884     879     486     885     886     880
CHEXA         86       1     182     191     202     193     194     203+CONT
+CONT        214     205     570     575     369     572     874     879+CONT
+CONT        747     744     881     887     746     882
CHEXA         87       1     183     192     203     194     195     204+CONT
+CONT        215     206     483     880     881     875     484     487+CONT
+CONT        888     883     337     658     659     655
CHEXA         88       1     185     194     205     196     197     206+CONT
+CONT        216     207     876     882     743     877     878     883+CONT
+CONT        748     745     656     660     398     657
CHEXA         89       1     190     199     209     200     201     210+CONT
+CONT        221     212     307     577     576     574     485     488+CONT
+CONT        889     884     489     890     891     885
CHEXA         90       1     191     200     211     202     203     212+CONT
+CONT        223     214     573     578     370     575     879     884+CONT
+CONT        750     747     886     892     749     887
CHEXA         91       1     192     201     212     203     204     213+CONT
+CONT        224     215     486     885     886     880     487     490+CONT
+CONT        893     888     338     661     662     658
CHEXA         92       1     194     203     214     205     206     215+CONT
+CONT        225     216     881     887     746     882     883     888+CONT
+CONT        751     748     659     663     399     660
CHEXA         93       1     199     208     218     209     210     219+CONT
+CONT        230     221     308     580     579     577     488     491+CONT
+CONT        894     889     492     895     896     890
CHEXA         94       1     200     209     220     211     212     221+CONT
+CONT        232     223     576     581     371     578     884     889+CONT
+CONT        753     750     891     897     752     892
CHEXA         95       1     201     210     221     212     213     222+CONT
+CONT        233     224     489     890     891     885     490     493+CONT
+CONT        898     893     339     664     665     661
CHEXA         96       1     203     212     223     214     215     224+CONT
+CONT        234     225     886     892     749     887     888     893+CONT
+CONT        754     751     662     666     400     663
CHEXA         97       1     208     217     227     218     219     228+CONT
+CONT        239     230     309     583     582     580     491     494+CONT
+CONT        899     894     495     900     901     895
CHEXA         98       1     209     218     229     220     221     230+CONT
+CONT        241     232     579     584     372     581     889     894+CONT
+CONT        756     753     896     902     755     897
CHEXA         99       1     210     219     230     221     222     231+CONT
+CONT        242     233     492     895     896     890     493     496+CONT
+CONT        903     898     340     667     668     664
CHEXA        100       1     212     221     232     223     224     233+CONT
+CONT        243     234     891     897     752     892     893     898+CONT
+CONT        757     754     665     669     401     666
CHEXA        101       1     217     226     236     227     228     237+CONT
+CONT        248     239     310     586     585     583     494     497+CONT
+CONT        904     899     498     905     906     900
CHEXA        102       1     218     227     238     229     230     239+CONT
+CONT        250     241     582     587     373     584     894     899+CONT
+CONT        759     756     901     907     758     902
CHEXA        103       1     219     228     239     230     231     240+CONT
+CONT        251     242     495     900     901     895     496     499+CONT
+CONT        908     903     341     670     671     667
CHEXA        104       1     221     230     241     232     233     242+CONT
+CONT        252     243     896     902     755     897     898     903+CONT
+CONT        760     757     668     672     402     669
CHEXA        105       1     226     235     245     236     237     246+CONT
+CONT        257     248     311     589     588     586     497     500+CONT
+CONT        909     904     501     910     911     905
CHEXA        106       1     227     236     247     238     239     248+CONT
+CONT        259     250     585     590     374     587     899     904+CONT
+CONT        762     759     906     912     761     907
CHEXA        107       1     228     237     248     239     240     249+CONT
+CONT        260     251     498     905     906     900     499     502+CONT
+CONT        913     908     342     673     674     670
CHEXA        108       1     230     239     250     241     242     251+CONT
+CONT        261     252     901     907     758     902     903     908+CONT
+CONT        763     760     671     675     403     672
CHEXA        109       1     235     244     254     245     246     255+CONT
+CONT        265     257     312     592     591     589     500     503+CONT
+CONT        914     909     504     915     916     910
CHEXA        110       1     236     245     256     247     248     257+CONT
+CONT        267     259     588     593     375     590     904     909+CONT
+CONT        765     762     911     917     764     912
CHEXA        111       1     237     246     257     248     249     258+CONT
+CONT        268     260     501     910     911     905     502     505+CONT
+CONT        918     913     343     676     677     673
CHEXA        112       1     239     248     259     250     251     260+CONT
+CONT        269     261     906     912     761     907     908     913+CONT
+CONT        766     763     674     678     404     675
CHEXA        113       1     244     253     262     254     255     263+CONT
+CONT        271     265     313     410     594     592     503     408+CONT
+CONT        772     914     506     773     919     915
CHEXA        114       1     245     254     264     256     257     265+CONT
+CONT        273     267     591     595     376     593     909     914+CONT
+CONT        768     765     916     920     767     917
CHEXA        115       1     246     255     265     257     258     266+CONT
+CONT        274     268     504     915     916     910     505     507+CONT
+CONT        921     918     344     679     680     676
CHEXA        116       1     248     257     267     259     260     268+CONT
+CONT        275     269     911     917     764     912     913     918+CONT
+CONT        769     766     677     681     405     678
CHEXA        117       1     254     262     270     264     265     271+CONT
+CONT        276     273     594     411     377     595     914     772+CONT
+CONT        414     768     919     774     770     920
CHEXA        118       1     255     263     271     265     266     272+CONT
+CONT        277     274     506     773     919     915     507     409+CONT
+CONT        775     921     345     412     682     679
CHEXA        119       1     257     265     273     267     268     274+CONT
+CONT        278     275     916     920     767     917     918     921+CONT
+CONT        771     769     680     683     406     681
CHEXA        120       1     265     271     276     273     274     277+CONT
+CONT        279     278     919     774     770     920     921     775+CONT
+CONT        415     771     682     413     407     683
$ Property data section
PSOLID         1
ENDDATA
